Coordinates
version=1
nRows=6
nColumns=36
inDegrees=yes

Units are S.I. units (second, meters, Newtons, ...)
If the header above contains a line with 'inDegrees', this indicates whether rotational values are in degrees (yes) or radians (no).

endheader
time	pelvis_tilt	pelvis_list	pelvis_rotation	pelvis_tx	pelvis_ty	pelvis_tz	hip_flexion_r	hip_adduction_r	hip_rotation_r	knee_angle_r	knee_angle_r_beta	ankle_angle_r	subtalar_angle_r	mtp_angle_r	hip_flexion_l	hip_adduction_l	hip_rotation_l	knee_angle_l	knee_angle_l_beta	ankle_angle_l	subtalar_angle_l	mtp_angle_l	lumbar_extension	lumbar_bending	lumbar_rotation	arm_flex_r	arm_add_r	arm_rot_r	elbow_flex_r	pro_sup_r	arm_flex_l	arm_add_l	arm_rot_l	elbow_flex_l	pro_sup_l
      0.41600000	      6.13830518	      4.62088384	      6.14248998	     -2.54218577	      1.00679384	      0.19747557	      3.34851743	     -2.81706350	     -4.66774835	    139.08521424	      2.42749493	     -6.04774696	    -17.79873497	    -14.63191487	     18.84555387	     11.20683959	     -1.28185160	     39.78047778	      0.69430032	     16.00572045	     -6.37056188	      5.97030654	    -23.43740000	     -6.94205112	     -7.55349496	     -5.29384204	    -15.09138445	     -0.85913609	     87.39501203	     90.00021046	    -20.60662921	    -18.30971995	     -3.59878905	     66.17798890	     90.00021046
      0.42000000	      6.59923021	      5.06259395	      5.94623530	     -2.51739473	      1.00533552	      0.19857767	      5.69318762	     -3.60326727	     -3.93962466	    140.95404907	      2.46011225	     -5.85199928	    -16.48132526	    -16.25551755	     17.78329660	     11.42511713	     -1.80686165	     41.73477786	      0.72840929	     17.49739364	     -6.59025030	      5.27127096	    -24.54840916	     -7.35317306	     -8.21533758	     -5.76855601	    -14.92995838	     -0.21947735	     84.46890059	     90.00021046	    -18.13844260	    -19.02973204	     -2.99643235	     67.07992151	     90.00021046
      0.42400000	      6.97251969	      5.69757306	      6.28685667	     -2.49171379	      1.00417183	      0.19819118	      7.89278120	     -4.83485529	     -3.60446453	    142.42933069	      2.48586077	     -5.49281207	    -15.05423644	    -16.93271208	     16.52842676	     12.11579286	     -1.53940796	     43.36771585	      0.75690943	     18.62284458	     -6.92570653	      4.67275725	    -25.51327910	     -7.68292528	     -9.40165218	     -6.51638722	    -14.78144463	      0.26315352	     81.81111971	     90.00021046	    -15.72979245	    -19.70282855	     -2.28207657	     67.93646642	     90.00021046
      0.42800000	      7.44957076	      6.30721276	      6.96937032	     -2.46640776	      1.00375727	      0.19759142	      9.89559024	     -5.98936076	     -3.56219981	    143.51656075	      2.50483652	     -5.26999853	    -13.97392146	    -18.64513176	     14.88487213	     12.79763101	     -0.79411878	     44.58663428	      0.77818357	     19.56071733	     -6.97043305	      3.52160159	    -26.66828166	     -7.82391019	    -10.91044464	     -7.26506744	    -14.56711054	      0.71500341	     79.38047782	     90.00021046	    -13.28868867	    -20.37503687	     -1.89363467	     69.03779689	     90.00021046
      0.43200000	      7.73902329	      6.70608352	      7.50658970	     -2.44115375	      1.00309263	      0.19701366	     12.27608264	     -6.92712130	     -3.31809255	    144.46621626	      2.52141113	     -4.83187071	    -12.60540962	    -18.95487630	     13.31853713	     13.21202050	      0.05198364	     45.63214543	      0.79643118	     20.63100282	     -6.70964952	      2.26371693	    -27.54262506	     -7.76316681	    -12.12834857	     -8.12190382	    -14.47945210	      1.05330505	     77.30004850	     90.00021046	    -10.75062570	    -21.06056196	     -1.18088276	     70.11254701	     90.00021046
      0.43600000	      8.07362287	      7.02571312	      8.05820312	     -2.41531699	      1.00299117	      0.19612360	     14.54590998	     -7.78269366	     -3.15134568	    145.04019426	      2.53142894	     -4.46601347	    -11.60785601	    -19.09129484	     11.32022023	     13.55772257	      1.22720579	     46.09267417	      0.80446893	     21.82937453	     -6.30320133	      1.94822865	    -28.37072505	     -7.58220753	    -13.23332312	     -9.21511656	    -14.44812521	      1.29598341	     75.43761910	     90.00021046	     -8.04990231	    -21.49638932	     -0.89949347	     71.45502068	     90.00021046
